#define dc_024_tl_width 24
#define dc_024_tl_height 24
static unsigned char dc_024_tl_bits[] = {
   0xff, 0xff, 0x7f, 0xff, 0xff, 0x3f, 0xff, 0xff, 0x1f, 0xff, 0xff, 0x0f,
   0xff, 0xff, 0x07, 0xff, 0xff, 0x03, 0xff, 0xff, 0x01, 0xff, 0xff, 0x00,
   0xff, 0x7f, 0x00, 0xff, 0x3f, 0x00, 0xff, 0x1f, 0x00, 0xff, 0x0f, 0x00,
   0xff, 0x07, 0x00, 0xff, 0x03, 0x00, 0xff, 0x01, 0x00, 0xff, 0x00, 0x00,
   0x7f, 0x00, 0x00, 0x3f, 0x00, 0x00, 0x1f, 0x00, 0x00, 0x0f, 0x00, 0x00,
   0x07, 0x00, 0x00, 0x03, 0x00, 0x00, 0x01, 0x00, 0x00, 0x00, 0x00, 0x00 };
