#define da_024_l_width 24
#define da_024_l_height 24
static unsigned char da_024_l_bits[] = {
   0x00, 0xf8, 0x03, 0x00, 0xfc, 0x81, 0x00, 0xfe, 0xc0, 0x00, 0x7f, 0xe0,
   0x80, 0x3f, 0xf0, 0xc0, 0x1f, 0xf8, 0xe0, 0x0f, 0xfc, 0xf0, 0x07, 0xfe,
   0xf8, 0x03, 0xff, 0xfc, 0x81, 0xff, 0xfe, 0xc0, 0xff, 0x7f, 0xe0, 0xff,
   0x7f, 0xe0, 0xff, 0xfe, 0xc0, 0xff, 0xfc, 0x81, 0xff, 0xf8, 0x03, 0xff,
   0xf0, 0x07, 0xfe, 0xe0, 0x0f, 0xfc, 0xc0, 0x1f, 0xf8, 0x80, 0x3f, 0xf0,
   0x00, 0x7f, 0xe0, 0x00, 0xfe, 0xc0, 0x00, 0xfc, 0x81, 0x00, 0xf8, 0x03 };
