#define da_024_r_width 24
#define da_024_r_height 24
static unsigned char da_024_r_bits[] = {
   0xc0, 0x1f, 0x00, 0x81, 0x3f, 0x00, 0x03, 0x7f, 0x00, 0x07, 0xfe, 0x00,
   0x0f, 0xfc, 0x01, 0x1f, 0xf8, 0x03, 0x3f, 0xf0, 0x07, 0x7f, 0xe0, 0x0f,
   0xff, 0xc0, 0x1f, 0xff, 0x81, 0x3f, 0xff, 0x03, 0x7f, 0xff, 0x07, 0xfe,
   0xff, 0x07, 0xfe, 0xff, 0x03, 0x7f, 0xff, 0x81, 0x3f, 0xff, 0xc0, 0x1f,
   0x7f, 0xe0, 0x0f, 0x3f, 0xf0, 0x07, 0x1f, 0xf8, 0x03, 0x0f, 0xfc, 0x01,
   0x07, 0xfe, 0x00, 0x03, 0x7f, 0x00, 0x81, 0x3f, 0x00, 0xc0, 0x1f, 0x00 };
